<?xml version="1.0" encoding="utf-8"?>
<!-- Generator: Adobe Illustrator 26.2.1, SVG Export Plug-In . SVG Version: 6.00 Build 0)  -->
<svg version="1.1" id="Capa_1" xmlns="http://www.w3.org/2000/svg" xmlns:xlink="http://www.w3.org/1999/xlink" x="0px" y="0px"
	 viewBox="0 0 14.1 14.1" style="enable-background:new 0 0 14.1 14.1;" xml:space="preserve">
<style type="text/css">
	.st0{fill:url(#SVGID_1_);}
	.st1{fill:url(#SVGID_00000158748642122029959440000015889546971921584260_);}
</style>
<g>
	
		<linearGradient id="SVGID_1_" gradientUnits="userSpaceOnUse" x1="-435.3583" y1="-35.5866" x2="-435.2852" y2="-35.514" gradientTransform="matrix(95.0628 0 0 95.2748 41387.6953 3391.8315)">
		<stop  offset="0" style="stop-color:#3A7FBA"/>
		<stop  offset="1" style="stop-color:#396A95"/>
	</linearGradient>
	<path class="st0" d="M7,0C3.4,0,3.6,1.6,3.6,1.6v1.6H7v0.5H2.3C2.3,3.7,0,3.4,0,7c0,3.6,2,3.5,2,3.5h1.2V8.8c0,0-0.1-2,2-2h3.4
		c0,0,1.9,0,1.9-1.8V1.9C10.4,1.9,10.7,0,7,0z M5.1,1.1c0.3,0,0.6,0.3,0.6,0.6l0,0c0,0.3-0.3,0.6-0.6,0.6l0,0
		c-0.3,0-0.6-0.3-0.6-0.6l0,0C4.5,1.4,4.8,1.1,5.1,1.1L5.1,1.1z"/>
	
		<linearGradient id="SVGID_00000170977773737026788700000014341148808963697795_" gradientUnits="userSpaceOnUse" x1="-435.662" y1="-35.8786" x2="-435.5834" y2="-35.8041" gradientTransform="matrix(95.0627 0 0 95.2748 41420.8008 3424.0854)">
		<stop  offset="0" style="stop-color:#FFE054"/>
		<stop  offset="1" style="stop-color:#FCC234"/>
	</linearGradient>
	<path style="fill:url(#SVGID_00000170977773737026788700000014341148808963697795_);" d="M7.1,14c3.6,0,3.3-1.5,3.3-1.5v-1.6H7
		v-0.5h4.8c0,0,2.3,0.3,2.3-3.3c0-3.6-2-3.5-2-3.5h-1.2v1.7c0,0,0.1,2-2,2H5.5c0,0-1.9,0-1.9,1.8v3.1C3.6,12.2,3.4,14,7.1,14L7.1,14
		z M9,12.9c-0.3,0-0.6-0.3-0.6-0.6l0,0c0-0.3,0.3-0.6,0.6-0.6l0,0c0.3,0,0.6,0.3,0.6,0.6l0,0C9.6,12.7,9.3,12.9,9,12.9L9,12.9
		L9,12.9z"/>
</g>
</svg>
