<?xml version="1.0" encoding="utf-8"?>
<!-- Generator: Adobe Illustrator 26.2.1, SVG Export Plug-In . SVG Version: 6.00 Build 0)  -->
<svg version="1.1" id="Capa_1" xmlns="http://www.w3.org/2000/svg" xmlns:xlink="http://www.w3.org/1999/xlink" x="0px" y="0px"
	 viewBox="0 0 100 100" style="enable-background:new 0 0 100 100;" xml:space="preserve">
<style type="text/css">
	.st0{fill:url(#SVGID_1_);}
	.st1{fill:url(#SVGID_00000098917445888803633030000013463854310590531243_);}
</style>
<g>
	
		<linearGradient id="SVGID_1_" gradientUnits="userSpaceOnUse" x1="-490.685" y1="-6.8059" x2="-490.1646" y2="-6.2895" gradientTransform="matrix(95.0628 0 0 95.2748 46655.2109 657.8622)">
		<stop  offset="0" style="stop-color:#3A7FBA"/>
		<stop  offset="1" style="stop-color:#396A95"/>
	</linearGradient>
	<path class="st0" d="M49.6,0.2c-25.4,0-23.8,11.1-23.8,11.1v11.4h24.3v3.4H16.2c0,0-16.2-1.9-16.2,23.8c0,25.6,14.2,24.7,14.2,24.7
		h8.4V62.7c0,0-0.5-14.2,14-14.2h24c0,0,13.5,0.2,13.5-13V13.6C74.1,13.6,76.1,0.2,49.6,0.2z M36.3,7.9c2.4,0,4.4,2,4.4,4.4l0,0
		c0,2.4-2,4.4-4.4,4.4l0,0c-2.4,0-4.4-2-4.4-4.4l0,0C31.9,9.9,33.8,7.9,36.3,7.9L36.3,7.9z"/>
	
		<linearGradient id="SVGID_00000115504016041426063470000017303929730491769760_" gradientUnits="userSpaceOnUse" x1="-490.7133" y1="-6.8135" x2="-490.1544" y2="-6.284" gradientTransform="matrix(95.0627 0 0 95.2748 46688.3125 690.1161)">
		<stop  offset="0" style="stop-color:#FFE054"/>
		<stop  offset="1" style="stop-color:#FCC234"/>
	</linearGradient>
	<path style="fill:url(#SVGID_00000115504016041426063470000017303929730491769760_);" d="M50.4,99.8c25.4,0,23.8-11,23.8-11V77.4
		H49.9V74h33.9c0,0,16.2,1.9,16.2-23.8c0-25.6-14.2-24.7-14.2-24.7h-8.4v11.9c0,0,0.5,14.2-14,14.2h-24c0,0-13.5-0.2-13.5,13v21.9
		C25.9,86.4,23.9,99.8,50.4,99.8L50.4,99.8z M63.7,92.1c-2.4,0-4.4-2-4.4-4.4l0,0c0-2.4,2-4.4,4.4-4.4l0,0c2.4,0,4.4,2,4.4,4.4l0,0
		C68.1,90.1,66.2,92.1,63.7,92.1L63.7,92.1L63.7,92.1z"/>
</g>
</svg>
