<?xml version="1.0" encoding="utf-8"?>
<!-- Generator: Adobe Illustrator 26.2.1, SVG Export Plug-In . SVG Version: 6.00 Build 0)  -->
<svg version="1.1" id="Capa_1" xmlns="http://www.w3.org/2000/svg" xmlns:xlink="http://www.w3.org/1999/xlink" x="0px" y="0px"
	 viewBox="0 0 128.1 128" style="enable-background:new 0 0 128.1 128;" xml:space="preserve">
<style type="text/css">
	.st0{fill:#FFFFFF;}
	
		.st1{opacity:0.9;fill:none;stroke:#858585;stroke-width:0.3344;stroke-linecap:round;stroke-linejoin:round;stroke-miterlimit:3.1156;stroke-dasharray:0.159,0.318;enable-background:new    ;}
	
		.st2{opacity:0.9;fill:none;stroke:#818181;stroke-width:0.3344;stroke-linecap:square;stroke-linejoin:round;stroke-miterlimit:77.8941;stroke-dasharray:0.159,0.318;enable-background:new    ;}
	.st3{fill:#11557C;}
	.st4{opacity:0.6;fill:#004CFF;enable-background:new    ;}
	.st5{opacity:0.6;fill:#CEFF29;enable-background:new    ;}
	.st6{opacity:0.6;fill:#FF6800;enable-background:new    ;}
	.st7{opacity:0.6;fill:#FFC400;enable-background:new    ;}
	.st8{opacity:0.6;fill:#29FFCE;enable-background:new    ;}
	.st9{opacity:0.6;fill:#7DFF7A;enable-background:new    ;}
	.st10{fill:#2C2C2C;}
</style>
<g>
	<path class="st0" d="M64,127.1c-16.8,0-32.7-6.6-44.6-18.5S1,80.8,1,64s6.6-32.7,18.5-44.6S47.2,0.9,64,0.9s32.7,6.6,44.6,18.5
		s18.5,27.7,18.5,44.6s-6.6,32.7-18.5,44.6S80.9,127.1,64,127.1z"/>
	<path class="st1" d="M64,63.8h63.1 M64,63.8l44.6-44.6 M64,63.8V0.7 M64,63.8L19.4,19.2 M64,63.8H1 M64,63.8l-44.6,44.6 M64,63.8
		v63.1 M64,63.8l44.6,44.6"/>
	<g>
		<path class="st2" d="M71,63.8l-0.2-1.7l-0.6-1.6l-1-1.4L67.9,58l-1.5-0.8l-1.7-0.4l-1.7,0l-1.7,0.4l-1.5,0.8l-1.2,1.2l-0.9,1.4
			l-0.6,1.6L57,64l0.3,1.7l0.7,1.6l1,1.4l1.3,1.1l1.5,0.7l1.7,0.3l1.7-0.1l1.6-0.5l1.5-0.9l1.2-1.2l0.9-1.5l0.5-1.6L71,63.8L71,63.8
			"/>
		<path class="st2" d="M85,63.8l-0.2-2.9L84.2,58l-1-2.8l-1.4-2.6l-1.7-2.4l-2-2.1l-2.3-1.8l-2.5-1.5l-2.7-1.1l-2.8-0.7l-2.9-0.3
			l-2.9,0.1l-2.9,0.5l-2.8,0.9l-2.6,1.3l-2.4,1.6l-2.2,2L47,51.4l-1.6,2.5l-1.2,2.7l-0.8,2.8l-0.4,2.9v2.9l0.4,2.9l0.8,2.8l1.2,2.7
			l1.6,2.5l1.9,2.2l2.2,2l2.4,1.6l2.6,1.3l2.8,0.9l2.9,0.5l2.9,0.1l2.9-0.3l2.8-0.7l2.7-1.1l2.5-1.5l2.3-1.8l2-2.1l1.7-2.4l1.4-2.6
			l1-2.8l0.6-2.9L85,63.8L85,63.8"/>
		<path class="st2" d="M99.1,63.8l-0.2-3.7l-0.6-3.6L97.3,53L96,49.5l-1.7-3.3l-2-3.1l-2.3-2.9l-2.6-2.6l-2.9-2.3l-3.1-2l-3.3-1.7
			l-3.4-1.3l-3.5-0.9l-3.6-0.6L64,28.7l-3.7,0.2l-3.6,0.6l-3.5,0.9l-3.4,1.3l-3.3,1.7l-3.1,2l-2.9,2.3L38,40.3l-2.3,2.9l-2,3.1
			L32,49.5L30.7,53l-0.9,3.5l-0.6,3.6L29,63.8l0.2,3.7l0.6,3.6l0.9,3.5L32,78l1.7,3.3l2,3.1l2.3,2.9l2.6,2.6l2.9,2.3l3.1,2l3.3,1.7
			l3.4,1.3l3.5,0.9l3.6,0.6l3.7,0.2l3.7-0.2l3.6-0.6l3.5-0.9l3.4-1.3l3.3-1.7l3.1-2l2.9-2.3l2.6-2.6l2.3-2.9l2-3.1L96,78l1.3-3.4
			l0.9-3.5l0.6-3.6L99.1,63.8L99.1,63.8"/>
		<path class="st2" d="M113.1,63.8l-0.3-5.1l-0.8-5.1l-1.3-5l-1.8-4.8l-2.3-4.6l-2.8-4.3l-3.2-4l-3.6-3.6l-4-3.2l-4.3-2.8L84,19
			l-4.8-1.8l-5-1.3L69.1,15L64,14.7L58.9,15l-5.1,0.8l-5,1.3L44.1,19l-4.6,2.3l-4.3,2.8l-4,3.2L27.6,31l-3.2,4l-2.8,4.3l-2.3,4.6
			l-1.8,4.8l-1.3,5l-0.8,5.1L15,63.8l0.3,5.1l0.8,5.1l1.3,5l1.8,4.8l2.3,4.6l2.8,4.3l3.2,4l3.6,3.6l4,3.2l4.3,2.8l4.6,2.3l4.8,1.8
			l5,1.3l5.1,0.8l5.1,0.3l5.1-0.3l5.1-0.8l5-1.3l4.8-1.8l4.6-2.3l4.3-2.8l4-3.2l3.6-3.6l3.2-4l2.8-4.3l2.3-4.6l1.8-4.8l1.3-5
			l0.8-5.1L113.1,63.8L113.1,63.8"/>
	</g>
	<path class="st3" d="M64,128c-17.1,0-33.2-6.7-45.3-18.7S0,81.1,0,64s6.7-33.2,18.7-45.3S47,0,64,0s33.2,6.7,45.3,18.7
		S128,46.9,128,64s-6.7,33.2-18.7,45.3S81.1,128,64,128z M64,1.9c-16.6,0-32.2,6.5-43.9,18.2C8.4,31.8,1.9,47.4,1.9,64
		s6.5,32.2,18.2,43.9s27.3,18.2,43.9,18.2s32.2-6.5,43.9-18.2s18.2-27.3,18.2-43.9s-6.5-32.2-18.2-43.9C96.2,8.3,80.6,1.9,64,1.9z"
		/>
	<path class="st4" d="M64,63.8l0.1,0l0.1,0l0.1,0l0.1,0l0.1,0l0.1,0l0.1,0l0.1,0l0.1,0l0.1,0l0.1,0l0.1,0l0.1,0l0.1,0l0.1,0l0.1,0
		l0.1,0l0.1,0l0.1,0l0.1,0l0.1,0l0.1,0l0.1,0l0.1,0l0.1,0l0.1,0l0.1,0l0.1,0l0.1,0l0.1,0l0.1,0l0.1,0l0.1,0l0.1,0l0.1,0l0.1,0l0.1,0
		l0.1,0l0.1,0l0.1,0l0.1,0l0.1,0l0.1,0l0.1,0l0.1,0l0.1,0l0.1,0l0.1,0l0.1,0l0.1,0l0.1,0l0.1,0l0.1,0l0.1,0l0.1,0l0.1,0l0.1,0l0.1,0
		l0.1,0l0.1,0l0.1,0l0.1,0l0.1,0l0.1,0l0.1,0l0.1,0l0.1,0l0.1,0l0.1,0l0.1,0l0.1,0l0.1,0l0.1,0l0.1,0l0.1,0l0.1,0l0.1,0l0.1,0l0.1,0
		l0.1,0l0.1,0l0.1,0l0.1,0l0.1,0l0.1,0l0.1,0l0.1,0l0.1,0l0.1,0l0.1,0l0.1,0l0.1,0l0.1,0l0.1,0l0.1,0l0.1,0l0.1,0l0.1,0l0.1,0l0.1,0
		l0,0l0,0l0,0l0,0l0,0l0,0l0,0l0,0l0,0l0,0l0,0l0,0l0,0l0,0l0,0l0,0l0,0l0,0l0,0l0,0l0,0l0,0l0,0l0,0l0,0l0,0l0,0l0,0l0,0l0,0l0,0
		l0,0l0,0l0,0l0,0l0,0l0,0l0,0l0,0l0,0l0,0l0,0l0,0l0,0l0,0l0,0l0,0l0,0l0,0l0,0l0,0l0,0l0,0l0,0l0,0l0,0l0,0l0,0l0,0l0,0l0,0l0,0
		l0,0l0,0l0,0l0,0l0,0l0,0l0,0l0,0l0,0l0,0l0,0l0,0l0,0l0,0l0,0l0,0l0,0l0,0l0,0l0,0l0,0l0,0l0,0l0,0l0,0l0,0l0,0l0,0l0,0l0,0l0,0
		l0,0l0,0l0,0v0.2H64.2C64.2,63.8,64,63.8,64,63.8z"/>
	<path class="st5" d="M64,63.8l0.1-0.4l0.1-0.4l0.1-0.4l0.1-0.4l0.1-0.4l0.1-0.4l0.1-0.4l0.1-0.4l0.1-0.4l0.1-0.4l0.1-0.4l0.1-0.4
		l0.1-0.4l0.1-0.4l0.1-0.4l0.1-0.4l0.1-0.4l0.1-0.4l0.1-0.4l0.1-0.4l0.1-0.4l0.1-0.4l0.1-0.4l0.1-0.4l0.1-0.4l0.1-0.4l0.1-0.4
		l0.1-0.4l0.1-0.4l0.1-0.4l0.1-0.4l0.1-0.4l0.1-0.4l0.1-0.4l0.1-0.4l0.1-0.4l0.1-0.4l0.1-0.4l0.1-0.4l0.1-0.4l0.1-0.4l0.1-0.4
		l0.1-0.4l0.1-0.4l0.1-0.4l0.1-0.4l0.1-0.4l0.1-0.4l0.1-0.4l0.1-0.4l0.1-0.4l0.1-0.4l0.1-0.4l0.1-0.4l0.1-0.4l0.1-0.4l0.1-0.4
		l0.1-0.4l0.1-0.4l0.1-0.4l0.1-0.4l0.1-0.4l0.1-0.4l0.1-0.4l0.1-0.4l0.1-0.4l0.1-0.4l0.1-0.4l0.1-0.4l0.1-0.4l0.1-0.4l0.1-0.4
		l0.1-0.4l0.1-0.4l0.1-0.4l0.1-0.4l0.1-0.4l0.1-0.4l0.1-0.4l0.1-0.4l0.1-0.4l0.1-0.4l0.1-0.4l0.1-0.4l0.1-0.4l0.1-0.4l0.1-0.4
		l0.1-0.4l0.1-0.4l0.1-0.4l0.1-0.4l0.1-0.4l0.1-0.4l0.1-0.4l0.1-0.4l0.1-0.4l0.1-0.4l0.2-0.4l0.1-0.4l0.1-0.4l0.1,0l0.1,0l0.1,0
		l0.1,0l0.1,0l0.1,0l0.1,0l0.1,0l0.1,0l0.1,0.1l0.1,0.1l0.1,0.1l0.1,0.1l0.1,0.1l0.1,0.1l0.1,0.1l0.1,0.1l0.1,0.1l0.1,0.1l0.1,0.1
		l0.1,0.1l0.1,0.1l0.1,0.1l0.1,0.1l0.1,0.1l0.1,0.1l0.1,0.1l0.1,0.1l0.1,0.1l0.1,0.1l0.1,0.1l0.1,0.1l0.1,0.1l0.1,0.1l0.1,0.1
		l0.1,0.1l0.1,0.1l0.1,0.1l0.1,0.1l0.1,0.1l0.1,0.1l0.1,0.1l0.1,0.1l0.1,0.1l0.1,0.1l0.1,0.1l0.1,0.1l0.1,0.1l0.1,0.1l0.1,0.1
		l0.1,0.1l0.1,0.1l0.1,0.1l0.1,0.1l0.1,0.1l0.1,0.1l0.1,0.1l0.1,0.1l0.1,0.1l0.1,0.1L86,28l0.1,0.1l0.1,0.1l0.1,0.1l0.1,0.1l0.1,0.1
		l0.1,0.1l0.1,0.1l0.1,0.1l0.1,0.1l0.1,0.1l0.1,0.1l0.1,0.1l0.1,0.1l0.1,0.1l0.1,0.1l0.1,0.1l0.1,0.1l0.1,0.1l0.1,0.1l0.1,0.1
		l0.1,0.1l0.1,0.1l0.1,0.1l0.1,0.1l0.1,0.1l0.1,0.1l0.1,0.1l0.1,0.1l0.1,0.1l0.1,0.1l0.1,0.1l0.1,0.1l0.1,0.1l0.1,0.1l0.1,0.1
		l0.1,0.1l0.1,0.1l0.1,0.1l0.1,0.1L90,31.2l-0.3,0.3l-0.3,0.3l-0.3,0.3l-0.3,0.3l-0.3,0.3l-0.3,0.3l-0.3,0.3l-0.3,0.3l-0.3,0.3
		l-0.3,0.3l-0.3,0.3l-0.3,0.3l-0.3,0.3l-0.3,0.3L86,36.2l-0.3,0.3l-0.3,0.3l-0.3,0.3L85,37.5l-0.3,0.3l-0.3,0.3l-0.3,0.3l-0.3,0.3
		l-0.3,0.3l-0.3,0.3l-0.3,0.3l-0.3,0.3l-0.3,0.3l-0.3,0.3l-0.3,0.3l-0.3,0.3l-0.3,0.3l-0.3,0.3l-0.3,0.3l-0.3,0.3l-0.3,0.3l-0.3,0.3
		L80,43.7L79.7,44l-0.3,0.3l-0.3,0.3L79,45l-0.3,0.3l-0.3,0.3L78.2,46l-0.3,0.3l-0.3,0.3L77.4,47l-0.3,0.3l-0.3,0.3L76.6,48
		l-0.3,0.3l-0.3,0.3L75.8,49l-0.3,0.3l-0.3,0.3L75,50l-0.3,0.3l-0.3,0.3L74.2,51L74,51.3l-0.3,0.3l-0.3,0.3l-0.3,0.3l-0.3,0.3
		l-0.3,0.3l-0.3,0.3l-0.3,0.3l-0.3,0.3l-0.3,0.3l-0.3,0.3l-0.3,0.3l-0.3,0.3l-0.3,0.3l-0.3,0.3L70,56.2l-0.3,0.3l-0.3,0.3l-0.3,0.3
		L69,57.5l-0.3,0.3l-0.3,0.3l-0.3,0.3L68,58.8l-0.3,0.3l-0.3,0.3l-0.3,0.3l-0.3,0.3l-0.3,0.3l-0.3,0.3l-0.3,0.3l-0.3,0.3l-0.3,0.3
		l-0.3,0.3l-0.3,0.3l-0.3,0.3l-0.3,0.3l-0.3,0.3L64,63.8L64,63.8z"/>
	<path class="st6" d="M64,63.8l-0.4-0.4l-0.4-0.4l-0.4-0.4l-0.4-0.4l-0.4-0.4l-0.4-0.4l-0.4-0.4l-0.4-0.4l-0.4-0.4l-0.4-0.4L60.1,59
		l-0.4-0.4l-0.4-0.4L59,57.8l-0.4-0.4l-0.4-0.4l-0.4-0.4L57.6,56l-0.4-0.4l-0.4-0.4l-0.4-0.4l-0.4-0.4l-0.4-0.4l-0.4-0.4L55,53
		l-0.4-0.4l-0.4-0.4L54,51.7l-0.4-0.4l-0.4-0.4l-0.4-0.4L52.5,50l-0.4-0.4l-0.4-0.4l-0.4-0.4l-0.4-0.4l-0.4-0.4l-0.4-0.4L50,47
		l-0.4-0.4l-0.4-0.4l-0.4-0.4l-0.4-0.4l-0.4-0.4l-0.4-0.4L47.5,44l-0.4-0.4l-0.4-0.4l-0.4-0.4l-0.4-0.4l-0.4-0.4l-0.4-0.4L45,41
		l-0.4-0.4l-0.4-0.4l-0.4-0.4l-0.4-0.4l-0.4-0.4l-0.4-0.4l-0.4-0.4l-0.4-0.4l-0.4-0.4l-0.4-0.4L41,36.2l-0.4-0.4l-0.4-0.4L40,34.9
		l-0.4-0.4l-0.4-0.4l-0.4-0.4l-0.4-0.4l-0.4-0.4l-0.4-0.4l-0.4-0.4l-0.4-0.4l-0.4-0.4l-0.4-0.4L36,30.2l-0.4-0.4l-0.4-0.4l-0.4-0.4
		l-0.4-0.4L34.2,28l-0.4-0.4l-0.4-0.4l-0.4-0.4l-0.4-0.4l-0.4-0.4l-0.4-0.4L31.7,25l-0.4-0.4L31,24.2l-0.4-0.4l-0.4-0.4l-0.4-0.4
		l-0.4-0.4L29.2,22l-0.4-0.4l-0.4-0.4l-0.4-0.4l0.2-0.2l0.2-0.2l0.2-0.2l0.2-0.2l0.2-0.2l0.2-0.2l0.2-0.2l0.2-0.2l0.2-0.2l0.2-0.2
		l0.2-0.2l0.2-0.2l0.2-0.2l0.2-0.2l0.2-0.2l0.2-0.2l0.2-0.2l0.2-0.2l0.2-0.2l0.2-0.1l0.2-0.1l0.2-0.1l0.2-0.1l0.2-0.1l0.2-0.1
		l0.2-0.1l0.2-0.1l0.2-0.1l0.2-0.1l0.2-0.1l0.2-0.1l0.2-0.1l0.2-0.1l0.2-0.1l0.2-0.1l0.2-0.1l0.2-0.1l0.2-0.1l0.2-0.1l0.2-0.1
		l0.2-0.1l0.2-0.1l0.2-0.1l0.2-0.1l0.2-0.1l0.2-0.1l0.2-0.1l0.2-0.1l0.2-0.1l0.2-0.1l0.2-0.1l0.2-0.1l0.2-0.1l0.2-0.1l0.2-0.1
		l0.2-0.1l0.2-0.1l0.2-0.1l0.2-0.1l0.2-0.1l0.2-0.1l0.2-0.1l0.2-0.1l0.2-0.1l0.2-0.1l0.2-0.1l0.2-0.1l0.2-0.1l0.2-0.1l0.2-0.1
		l0.2-0.1l0.2-0.1l0.2-0.1l0.2-0.1l0.2-0.1l0.2-0.1l0.2-0.1l0.2-0.1l0.2-0.1l0.3-0.1l0.3-0.1l0.3-0.1l0.3-0.1l0.3-0.1l0.3-0.1
		l0.3-0.1l0.3-0.1l0.3-0.1l0.3-0.1L49,9.8l0.3-0.1l0.3-0.1l0.3-0.1L50,9.5l0.3-0.1l0.3-0.1l0.3-0.1L51,9.2l0.3-0.1l0.3-0.1l0.1,0.5
		l0.1,0.5l0.1,0.5l0.1,0.5l0.1,0.5l0.1,0.5l0.1,0.5l0.1,0.5l0.1,0.5l0.1,0.5l0.1,0.5l0.1,0.5l0.1,0.5l0.1,0.5l0.1,0.5l0.1,0.5
		l0.1,0.5l0.1,0.5l0.1,0.5L54,20l0.1,0.5l0.1,0.5l0.1,0.5l0.1,0.5l0.1,0.5l0.1,0.5l0.1,0.5l0.1,0.5l0.1,0.5l0.1,0.5l0.1,0.5l0.1,0.5
		l0.1,0.5l0.1,0.6l0.1,0.5l0.1,0.5l0.1,0.5l0.1,0.5l0.1,0.5l0.1,0.5l0.1,0.5l0.1,0.5l0.1,0.5l0.1,0.5l0.1,0.5l0.1,0.5l0.1,0.5
		l0.1,0.5l0.1,0.5l0.1,0.5l0.1,0.5l0.1,0.5l0.1,0.5l0.1,0.5l0.1,0.5l0.1,0.5l0.1,0.5l0.1,0.5l0.1,0.5l0.1,0.5l0.1,0.5l0.1,0.5
		l0.1,0.5l0.1,0.5l0.1,0.5l0.1,0.5l0.1,0.5l0.1,0.5l0.1,0.5l0.1,0.5l0.1,0.5l0.1,0.5l0.1,0.5l0.1,0.5l0.1,0.5l0.1,0.5l0.1,0.5
		l0.1,0.5l0.1,0.5l0.1,0.5l0.1,0.5l0.1,0.5l0.1,0.5L62,55l0.1,0.5l0.1,0.5l0.1,0.5l0.1,0.5l0.1,0.5l0.1,0.5l0.1,0.5l0.1,0.5l0.1,0.5
		l0.1,0.5l0.1,0.5l0.1,0.5l0.1,0.5l0.1,0.5l0.1,0.5L64,63.8L64,63.8z"/>
	<path class="st7" d="M64,63.8l-0.5,0.1L63.1,64L62.6,64l-0.5,0.1l-0.5,0.1l-0.5,0.1l-0.5,0.1l-0.5,0.1l-0.5,0.1l-0.5,0.1l-0.5,0.1
		l-0.5,0.1l-0.5,0.1L57.3,65l-0.5,0.1l-0.5,0.1l-0.5,0.1l-0.5,0.1l-0.5,0.1l-0.5,0.1l-0.5,0.1l-0.5,0.1l-0.5,0.1l-0.5,0.1L52,66
		l-0.5,0.1L51,66.1l-0.5,0.1L50,66.3l-0.5,0.1l-0.5,0.1l-0.5,0.1l-0.5,0.1l-0.5,0.1l-0.5,0.1l-0.5,0.1L46.2,67l-0.5,0.1l-0.5,0.1
		l-0.5,0.1l-0.5,0.1l-0.5,0.1l-0.5,0.1l-0.5,0.1l-0.5,0.1l-0.5,0.1l-0.5,0.1L40.8,68l-0.5,0.1l-0.5,0.1l-0.5,0.1l-0.5,0.1l-0.5,0.1
		L38,68.5l-0.5,0.1L37,68.7l-0.5,0.1L36,68.9l-0.5,0.1L35.1,69l-0.5,0.1l-0.5,0.1l-0.5,0.1l-0.5,0.1l-0.5,0.1l-0.5,0.1l-0.5,0.1
		l-0.5,0.1l-0.5,0.1l-0.5,0.1L29.7,70l-0.5,0.1l-0.5,0.1l-0.5,0.1l-0.5,0.1l-0.5,0.1l-0.5,0.1l-0.5,0.1l-0.5,0.1l-0.5,0.1l-0.5,0.1
		L24.4,71L24,71.1l-0.5,0.1L23,71.2l-0.5,0.1L22,71.4l-0.5,0.1l-0.5,0.1l-0.5,0.1l-0.5,0.1l-0.5,0.1l-0.5,0.1L18.7,72l-0.5,0.1
		l-0.5,0.1l-0.5,0.1l-0.5,0.1l-0.5,0.1l-0.5,0.1l-0.1-0.3l-0.1-0.3l-0.1-0.3l0-0.3l0-0.3l0-0.3l0-0.3l0-0.3l0-0.3l0-0.3l0-0.3l0-0.3
		l0-0.3l0-0.3l0-0.3l0-0.3l0-0.3l0-0.3l0-0.3l0-0.3l0-0.3l0-0.3l0-0.3l0-0.3l0-0.3l0-0.3l0-0.3l0-0.3v-0.3l0-0.3l0-0.3l0-0.3l0-0.3
		l0-0.3l0-0.3l0-0.3l0-0.3l0-0.3l0-0.3l0-0.3l0-0.3l0-0.3l0-0.3l0-0.3l0-0.3l0-0.3l0-0.3l0-0.3l0-0.3l0-0.3l0-0.3l0-0.3l0-0.3l0-0.3
		l0-0.3l0.1-0.3l0.1-0.3l0.1-0.3l0.1-0.3l0.1-0.3l0.1-0.3l0.1-0.3l0.1-0.3l0.1-0.3l0.1-0.3l0.1-0.3l0.1-0.3l0.1-0.3l0.1-0.3l0.1-0.3
		l0.1-0.3l0.1-0.3l0.1-0.3L17,50l0.1-0.3l0.1-0.3l0.1-0.3l0.1-0.3l0.1-0.3l0.1-0.3l0.1-0.3l0.1-0.3l0.1-0.3l0.1-0.3l0.1-0.3l0.1-0.3
		l0.1-0.3l0.1-0.3l0.1-0.3l0.1-0.3l0.1-0.3l0.1-0.3l0.1-0.3l0.1-0.3l0.1-0.3l0.1-0.3l0.1-0.3l0.1-0.3l0.1-0.3l0.1-0.3l0.4,0.2
		l0.4,0.2l0.4,0.2l0.4,0.2l0.4,0.2l0.4,0.2l0.4,0.2l0.4,0.2l0.4,0.2l0.4,0.2l0.4,0.2l0.4,0.2l0.4,0.2l0.4,0.2l0.4,0.2l0.4,0.2
		l0.4,0.2l0.4,0.2l0.4,0.2l0.4,0.2l0.4,0.2l0.4,0.2l0.4,0.2l0.4,0.2l0.4,0.2l0.4,0.2l0.4,0.2l0.4,0.2l0.4,0.2l0.4,0.2l0.4,0.2
		l0.4,0.2l0.4,0.2l0.4,0.2l0.4,0.2l0.4,0.2l0.4,0.2l0.4,0.2l0.4,0.2l0.4,0.2l0.4,0.2l0.4,0.2l0.4,0.2l0.4,0.2l0.4,0.2l0.4,0.2
		l0.4,0.2l0.4,0.2l0.4,0.2l0.4,0.2l0.4,0.2l0.4,0.2l0.4,0.2l0.4,0.2l0.4,0.2l0.4,0.2l0.4,0.2l0.4,0.2l0.4,0.2l0.4,0.2l0.4,0.2
		l0.4,0.2l0.4,0.2l0.4,0.2l0.4,0.2l0.4,0.2l0.4,0.2l0.4,0.2l0.4,0.2l0.4,0.2l0.4,0.2l0.4,0.2l0.4,0.2l0.4,0.2l0.4,0.2l0.4,0.2
		l0.4,0.2l0.4,0.2l0.4,0.2l0.4,0.2l0.4,0.2l0.4,0.2l0.4,0.2l0.4,0.2l0.4,0.2l0.4,0.2l0.4,0.2l0.4,0.2l0.4,0.2l0.4,0.2l0.4,0.2
		l0.4,0.2l0.4,0.2l0.4,0.2l0.4,0.2l0.4,0.2l0.4,0.2l0.4,0.2l0.4,0.2L64,63.8L64,63.8z"/>
	<path class="st8" d="M64,63.8l-0.2,0.2l-0.2,0.2l-0.2,0.2l-0.2,0.2l-0.2,0.2l-0.2,0.2l-0.2,0.2l-0.2,0.2l-0.2,0.2l-0.2,0.2
		l-0.2,0.2l-0.2,0.2L61,65.9L60.8,66l-0.2,0.2l-0.2,0.2l-0.2,0.2l-0.2,0.2l-0.2,0.2L59.4,67l-0.2,0.2L59,67.3l-0.2,0.2l-0.2,0.2
		l-0.2,0.2L58,67.9l-0.2,0.2l-0.2,0.2l-0.2,0.2l-0.2,0.2l-0.2,0.2l-0.2,0.2l-0.2,0.2l-0.2,0.2L56,69.4l-0.2,0.2l-0.2,0.2l-0.2,0.2
		L55,70l-0.2,0.2l-0.2,0.2l-0.2,0.2l-0.2,0.2l-0.2,0.2L53.7,71l-0.2,0.2l-0.2,0.2L53,71.5l-0.2,0.2l-0.2,0.2l-0.2,0.2l-0.2,0.2
		l-0.2,0.2l-0.2,0.2l-0.2,0.1l-0.2,0.2l-0.2,0.2L50.7,73l-0.2,0.2l-0.2,0.2L50,73.5l-0.2,0.2l-0.2,0.2L49.3,74L49,74.2l-0.2,0.2
		l-0.2,0.2l-0.2,0.2l-0.2,0.2L47.9,75l-0.2,0.2l-0.2,0.2l-0.2,0.2L47,75.6l-0.2,0.2l-0.2,0.2l-0.2,0.2l-0.2,0.2l-0.2,0.2l-0.2,0.2
		l-0.2,0.2l-0.2,0.2L44.9,77l-0.2,0.2l-0.2,0.2l-0.2,0.2L44,77.7l-0.2,0.2L43.5,78l-0.2,0.2l-0.2,0.2l-0.2,0.2l-0.2,0.2l-0.2,0.2
		L42.1,79l-0.2,0.2l-0.2,0.2l-0.2,0.2l-0.2,0.1L41,79.7l0,0l0,0l0,0l0,0l0,0l0,0l0,0l0,0l0,0l0,0l0,0l0,0l0,0l0,0l0,0l0,0l0,0l0,0
		l0,0l0,0l0,0l0,0l0,0l0,0l0,0l0,0l0,0l0,0l0,0l0,0l0,0l0,0l0,0l0,0l0,0l0,0l0,0l0,0l0,0l0,0l0,0l0,0l0,0l0,0l0,0l0,0l0,0l0,0l0,0
		l0,0l0,0l0,0l0,0l0,0l0,0l0,0l0,0l0,0l0,0l0,0l0,0l0,0l0,0l0,0l0,0l0,0l0,0l0,0l0,0l0,0l0,0l0,0l0,0l0,0l0,0l0,0l0,0l0,0l0,0l0,0
		l0,0l0,0l0,0l0,0l0,0l0,0l0,0l0,0l0,0l0,0l0,0l0,0l0,0l0,0l0,0l0,0l0,0l0,0l0,0l0,0l0.3-0.1l0.3-0.1l0.3-0.1l0.3-0.1l0.3-0.1
		l0.3-0.1l0.3-0.1l0.3-0.1l0.3-0.1l0.3-0.1l0.3-0.1l0.3-0.1l0.3-0.1l0.3-0.1l0.3-0.1l0.3-0.1l0.3-0.1l0.3-0.1l0.3-0.1l0.3-0.1
		l0.3-0.1l0.3-0.1l0.3-0.1l0.3-0.1l0.3-0.1l0.3-0.1l0.3-0.1l0.3-0.1l0.3-0.1l0.3-0.1l0.3-0.1l0.3-0.1l0.3-0.1l0.3-0.1l0.3-0.1
		l0.3-0.1l0.3-0.1l0.3-0.1l0.3-0.1l0.3-0.1l0.3-0.1l0.3-0.1l0.3-0.1l0.3-0.1l0.3-0.1l0.3-0.1l0.3-0.1l0.3-0.1l0.3-0.1l0.3-0.1
		l0.3-0.1l0.3-0.1l0.3-0.1l0.3-0.1l0.3-0.1l0.3-0.1l0.3-0.1l0.3-0.1l0.3-0.1l0.3-0.1l0.3-0.1l0.3-0.1l0.3-0.1l0.3-0.1l0.3-0.1
		l0.3-0.1l0.3-0.1l0.3-0.1l0.3-0.1l0.3-0.1l0.3-0.1l0.3-0.1l0.3-0.1l0.3-0.1l0.3-0.1l0.3-0.1l0.3-0.1l0.3-0.1l0.3-0.1l0.3-0.1
		l0.3-0.1l0.3-0.1l0.3-0.1l0.3-0.1l0.3-0.1l0.3-0.1l0.3-0.1l0.3-0.1l0.3-0.1l0.3-0.1l0.3-0.1l0.3-0.1l0.3-0.1l0.3-0.1l0.3-0.1
		l0.3-0.1l0.3-0.1l0.3-0.1l0.3-0.1L64,63.8L64,63.8z"/>
	<path class="st9" d="M64,63.8l0.1,0.3l0.1,0.3l0.1,0.3l0.1,0.3l0.1,0.3l0.1,0.3l0.1,0.3l0.1,0.3l0.1,0.3l0.1,0.3l0.1,0.3l0.1,0.3
		l0.1,0.3l0.1,0.3l0.1,0.3l0.1,0.3l0.1,0.3l0.1,0.3l0.1,0.3l0.1,0.3l0.1,0.3l0.1,0.3l0.1,0.3l0.1,0.3l0.1,0.3l0.1,0.3l0.1,0.3
		l0.1,0.3l0.1,0.3l0.1,0.3l0.1,0.3l0.1,0.3l0.1,0.3l0.1,0.3l0.1,0.3l0.1,0.3l0.1,0.3l0.1,0.3l0.1,0.3l0.1,0.3l0.1,0.3l0.1,0.3
		l0.1,0.3l0.1,0.3l0.1,0.3l0.1,0.3l0.1,0.3l0.1,0.3l0.1,0.3l0.1,0.3l0.1,0.3l0.1,0.3l0.1,0.3l0.1,0.3l0.1,0.3l0.1,0.3l0.1,0.3
		l0.1,0.3l0.1,0.3l0.1,0.3l0.1,0.3l0.1,0.3l0.1,0.3l0.1,0.3l0.1,0.3l0.1,0.3l0.1,0.3l0.1,0.3l0.1,0.3l0.1,0.3l0.1,0.3l0.1,0.3
		l0.1,0.3l0.1,0.3l0.1,0.3l0.1,0.3l0.1,0.3l0.1,0.3l0.1,0.3l0.1,0.3l0.1,0.3l0.1,0.3l0.1,0.3l0.1,0.3l0.1,0.3l0.1,0.3l0.1,0.3
		l0.1,0.3l0.1,0.3l0.1,0.3l0.1,0.3l0.1,0.3l0.1,0.3l0.1,0.3l0.1,0.3l0.1,0.3l0.1,0.3l0.1,0.3l0.1,0.3l0.1,0.3l-0.1,0l-0.1,0l-0.1,0
		l-0.1,0l-0.1,0l-0.1,0l-0.1,0l-0.1,0l-0.1,0l-0.1,0l-0.1,0l-0.1,0l-0.1,0l-0.1,0l-0.1,0l-0.1,0l-0.1,0l-0.1,0l-0.1,0l-0.1,0l-0.1,0
		l-0.1,0l-0.1,0l-0.1,0l-0.1,0l-0.1,0l-0.1,0l-0.1,0l-0.1,0l-0.1,0l-0.1,0l-0.1,0l-0.1,0l-0.1,0l-0.1,0l-0.1,0l-0.1,0l-0.1,0l-0.1,0
		l-0.1,0l-0.1,0l-0.1,0h-0.3l-0.1,0l-0.1,0l-0.1,0l-0.1,0l-0.1,0l-0.1,0l-0.1,0l-0.2,0l-0.1,0l-0.1,0l-0.1,0l-0.1,0l-0.1,0l-0.1,0
		l-0.1,0l-0.1,0l-0.1,0l-0.1,0l-0.1,0l-0.1,0l-0.1,0l-0.1,0l-0.1,0l-0.1,0l-0.1,0l-0.1,0l-0.1,0l-0.1,0l-0.1,0l-0.1,0l-0.1,0l-0.1,0
		l-0.1,0l-0.1,0l-0.1,0l-0.1,0l-0.1,0l-0.1,0l-0.1,0l-0.1,0l-0.1,0l-0.1,0l-0.1,0l-0.1,0l-0.1,0l-0.1,0l-0.1,0l-0.1,0l-0.1,0l-0.1,0
		l-0.1,0l-0.1,0l-0.1,0l-0.1,0l-0.1,0l-0.1,0l0.1-0.3l0.1-0.3l0.1-0.3l0.1-0.3l0.1-0.3l0.1-0.3l0.1-0.3l0.1-0.3l0.1-0.3l0.1-0.3
		l0.1-0.3l0.1-0.3l0.1-0.3l0.1-0.3l0.1-0.3l0.1-0.3l0.1-0.3l0.1-0.3l0.1-0.3l0.1-0.3l0.1-0.3l0.1-0.3l0.1-0.3l0.1-0.3l0.1-0.3
		l0.1-0.3l0.1-0.3l0.1-0.3l0.1-0.3l0.1-0.3l0.1-0.3l0.1-0.3l0.1-0.3l0.1-0.3L59,86l0.1-0.3l0.1-0.3l0.1-0.3l0.1-0.3l0.1-0.3l0.1-0.3
		l0.1-0.3l0.1-0.3l0.1-0.3l0.1-0.3l0.1-0.3l0.1-0.3l0.1-0.3l0.1-0.3l0.1-0.3l0.1-0.3l0.1-0.3l0.1-0.3l0.1-0.3l0.1-0.3l0.1-0.3
		l0.1-0.3l0.1-0.3l0.1-0.3l0.1-0.3l0.1-0.3l0.1-0.3l0.1-0.3l0.1-0.3l0.1-0.3l0.1-0.3l0.1-0.3l0.1-0.3l0.1-0.3l0.1-0.3l0.1-0.3
		l0.1-0.3L62,73l0.1-0.3l0.1-0.3l0.1-0.3l0.1-0.3l0.1-0.3l0.1-0.3l0.1-0.3l0.1-0.3l0.1-0.3l0.1-0.3l0.1-0.3l0.1-0.3l0.1-0.3l0.1-0.3
		l0.1-0.3l0.1-0.3l0.1-0.3l0.1-0.3l0.1-0.3l0.1-0.3l0.1-0.3l0.1-0.3l0.1-0.3l0.1-0.3l0.1-0.3l0.1-0.3L64,63.8L64,63.8z"/>
	<path class="st6" d="M64,63.8l0.4,0.3l0.4,0.3l0.4,0.3l0.4,0.3l0.4,0.3l0.4,0.3l0.4,0.3l0.4,0.3l0.4,0.3l0.4,0.3l0.4,0.3l0.4,0.3
		l0.4,0.3l0.4,0.3l0.4,0.3l0.4,0.3l0.4,0.3L72,70l0.4,0.3l0.4,0.3l0.4,0.3l0.4,0.3l0.4,0.3l0.4,0.3l0.4,0.3l0.4,0.3l0.4,0.3l0.4,0.3
		l0.4,0.3l0.4,0.3l0.4,0.3l0.4,0.3l0.4,0.3l0.4,0.3l0.4,0.3l0.4,0.3l0.4,0.3l0.4,0.3l0.4,0.3l0.4,0.3l0.4,0.3l0.4,0.3l0.4,0.3
		l0.4,0.3l0.4,0.3l0.4,0.3l0.4,0.3l0.4,0.3l0.4,0.3l0.4,0.3l0.4,0.3l0.4,0.3l0.4,0.3l0.4,0.3l0.4,0.3l0.4,0.3l0.4,0.3l0.4,0.3
		l0.4,0.3l0.4,0.3l0.4,0.3l0.4,0.3l0.4,0.3l0.4,0.3l0.4,0.3l0.4,0.3l0.4,0.3l0.4,0.3l0.4,0.3l0.4,0.3l0.4,0.3l0.4,0.3l0.4,0.3
		l0.4,0.3l0.4,0.3l0.4,0.3l0.4,0.3l0.4,0.3l0.4,0.3l0.4,0.3l0.4,0.3l0.4,0.3l0.4,0.3l0.4,0.3l0.4,0.3l0.4,0.3l0.4,0.3l0.4,0.3
		l0.4,0.3l0.4,0.3l0.4,0.3l0.4,0.3l0.4,0.3l0.4,0.3l0.4,0.3l0.4,0.3l0.4,0.3l0.4,0.3l0.4,0.3l0.4,0.3l-0.1,0.1l-0.1,0.1l-0.1,0.1
		l-0.1,0.1l-0.1,0.1l-0.1,0.1l-0.1,0.1l-0.1,0.1l-0.1,0.1l-0.1,0.1l-0.1,0.1l-0.1,0.1l-0.1,0.1l-0.1,0.1l-0.1,0.1l-0.1,0.1l-0.1,0.1
		l-0.1,0.1l-0.1,0.1l-0.1,0.1l-0.1,0.1l-0.1,0.1l-0.1,0.1l-0.1,0.1l-0.1,0.1l-0.1,0.1l-0.1,0.1l-0.1,0.1l-0.1,0.1l-0.1,0.1l-0.1,0.1
		l-0.1,0.1l-0.1,0.1l-0.1,0.1l-0.1,0.1l-0.1,0.1L105,102l-0.1,0.1l-0.1,0.1l-0.1,0.1l-0.1,0.1l-0.1,0.1l-0.1,0.1l-0.1,0.1l-0.1,0.1
		l-0.1,0.1l-0.1,0.1L104,103l-0.1,0.1l-0.1,0.1l-0.1,0.1l-0.1,0.1l-0.1,0.1l-0.1,0.1l-0.1,0.1l-0.1,0.1l-0.1,0.1l-0.1,0.1L103,104
		l-0.1,0.1l-0.1,0.1l-0.1,0.1l-0.1,0.1l-0.1,0.1l-0.1,0.1l-0.1,0.1l-0.1,0.1l-0.1,0.1L102,105L102,105l-0.1,0.1l-0.1,0.1l-0.1,0.1
		l-0.1,0.1l-0.1,0.1l-0.1,0.1l-0.1,0.1l-0.1,0.1l-0.1,0.1l-0.1,0.1l-0.1,0.1l-0.1,0.1l-0.1,0.1l-0.1,0.1l-0.1,0.1l-0.1,0.1l-0.1,0.1
		l-0.1,0.1l-0.1,0.1l-0.1,0.1l-0.1,0.1l-0.1,0.1l-0.1,0.1l-0.1,0.1l-0.1,0.1l-0.1,0.1l-0.1,0.1l-0.1,0.1l-0.1,0.1l-0.1,0.1l-0.3-0.4
		l-0.3-0.4l-0.3-0.4l-0.3-0.4l-0.3-0.4l-0.3-0.4l-0.3-0.4l-0.3-0.4l-0.3-0.4l-0.3-0.4l-0.3-0.4l-0.3-0.4l-0.3-0.4l-0.3-0.4l-0.3-0.4
		l-0.3-0.4l-0.3-0.4l-0.3-0.4l-0.3-0.4L92,98.8l-0.3-0.4l-0.3-0.4l-0.3-0.4l-0.3-0.4l-0.3-0.4l-0.3-0.4l-0.3-0.4l-0.3-0.4l-0.3-0.4
		l-0.3-0.4L88.1,94l-0.3-0.4l-0.3-0.4l-0.3-0.4l-0.3-0.4l-0.3-0.4L86,91.4l-0.3-0.4l-0.3-0.4L85,90.1l-0.3-0.4l-0.3-0.4l-0.3-0.4
		l-0.3-0.4l-0.3-0.4l-0.3-0.4L82.5,87l-0.3-0.4l-0.3-0.4l-0.3-0.4l-0.3-0.4l-0.3-0.4l-0.3-0.4l-0.3-0.4l-0.3-0.4L79.4,83L79,82.6
		l-0.3-0.4l-0.3-0.4L78,81.3l-0.3-0.4l-0.3-0.4L76.9,80l-0.3-0.4l-0.3-0.4l-0.3-0.4l-0.3-0.4l-0.3-0.4l-0.3-0.4l-0.3-0.4l-0.3-0.4
		L73.8,76l-0.3-0.4l-0.3-0.4l-0.3-0.4l-0.3-0.4L72,73.8l-0.3-0.4L71.3,73L71,72.5l-0.3-0.4l-0.3-0.4l-0.3-0.4l-0.3-0.4l-0.3-0.4
		l-0.3-0.4l-0.3-0.4L68.2,69l-0.3-0.4l-0.3-0.4l-0.3-0.4l-0.3-0.4l-0.3-0.4l-0.3-0.4l-0.3-0.4l-0.3-0.4L65,65.1l-0.3-0.4l-0.3-0.4
		L64,63.8L64,63.8z"/>
	<path class="st10" d="M78,64.2l-14,0c-0.2,0-0.4-0.2-0.4-0.4c0-0.2,0.1-0.3,0.3-0.4L77.2,59c0.2-0.1,0.5,0,0.5,0.3c0,0,0,0,0,0
		c0.5,1.4,0.7,2.9,0.7,4.5C78.5,64,78.3,64.2,78,64.2C78,64.2,78,64.2,78,64.2z M66.7,63.3h10.9c0-1.1-0.2-2.3-0.5-3.4L66.7,63.3z"
		/>
	<path class="st10" d="M64,64.2c-0.2,0-0.4-0.2-0.4-0.4c0-0.1,0-0.1,0-0.1l14.8-39.4c0.1-0.2,0.3-0.3,0.5-0.3c0,0,0,0,0,0
		c4.2,1.6,8.1,3.8,11.6,6.6c0.2,0.1,0.2,0.4,0.1,0.6L64.4,64C64.3,64.1,64.2,64.2,64,64.2z M79,25L65.4,61.4L89.6,31
		C86.4,28.5,82.9,26.4,79,25z"/>
	<path class="st10" d="M64,64.2c-0.1,0-0.2-0.1-0.3-0.2L27.8,21c-0.2-0.2-0.1-0.4,0.1-0.6c0,0,0,0,0,0c6.8-5.7,14.9-9.7,23.6-11.7
		C51.7,8.7,51.9,8.8,52,9l12.5,54.6c0,0.2-0.1,0.4-0.2,0.5C64.2,64.2,64.1,64.2,64,64.2z M28.7,20.8l34.5,41.3l-12-52.5
		C43,11.6,35.3,15.4,28.7,20.8z"/>
	<path class="st10" d="M15.8,73c-0.2,0-0.4-0.1-0.4-0.3c-1.9-10.2-0.4-21,4.1-30.3c0.1-0.2,0.4-0.3,0.6-0.2l44.2,21.3
		c0.2,0.1,0.3,0.4,0.2,0.6c-0.1,0.1-0.2,0.2-0.3,0.2L15.8,73C15.8,73,15.8,73,15.8,73z M20,43.1c-4.2,9-5.6,19.2-3.9,29l46.5-8.4
		L20,43.1z"/>
	<path class="st10" d="M41,80.2c-0.1,0-0.3-0.1-0.4-0.2c-0.8-1.2-1.6-2.5-2.2-3.9c-0.1-0.2,0-0.5,0.2-0.6c0,0,0,0,0,0l25.3-12.2
		c0.2-0.1,0.5,0,0.6,0.2c0.1,0.2,0,0.4-0.1,0.6l-23,16C41.2,80.1,41.1,80.2,41,80.2z M39.3,76.1c0.5,1,1.1,2,1.8,3l18.2-12.6
		C59.3,66.5,39.3,76.1,39.3,76.1z"/>
	<path class="st10" d="M64,99.2c-2.7,0-5.3-0.3-7.9-0.9c-0.2-0.1-0.4-0.3-0.3-0.5l7.8-34.2c0-0.2,0.2-0.4,0.4-0.3
		c0.2,0,0.4,0.2,0.4,0.4l5.9,34.5c0,0.2-0.1,0.5-0.3,0.5C68,99.1,66,99.2,64,99.2z M56.7,97.6c4.1,0.9,8.5,1,12.7,0.4L64,66
		C64,66,56.7,97.6,56.7,97.6z"/>
	<path class="st10" d="M99,108c-0.1,0-0.3-0.1-0.3-0.2L63.7,64c-0.1-0.2-0.1-0.5,0.1-0.6c0.2-0.1,0.4-0.1,0.5,0l44.2,34.5
		c0.2,0.1,0.2,0.4,0.1,0.6c-2.7,3.5-5.9,6.7-9.3,9.4C99.2,108,99.1,108,99,108z M66.6,66.3L99,107c3.2-2.6,6.1-5.5,8.6-8.7
		L66.6,66.3z"/>
</g>
</svg>
