<?xml version="1.0" encoding="utf-8"?>
<!-- Generator: Adobe Illustrator 26.2.1, SVG Export Plug-In . SVG Version: 6.00 Build 0)  -->
<svg version="1.1" id="Capa_1" xmlns="http://www.w3.org/2000/svg" xmlns:xlink="http://www.w3.org/1999/xlink" x="0px" y="0px"
	 viewBox="0 0 128.1 128" style="enable-background:new 0 0 128.1 128;" xml:space="preserve">
<style type="text/css">
	.st0{fill:#336791;}
	.st1{fill:#FFFFFF;}
</style>
<path d="M126,77c-0.7-2.2-2.7-3.8-5.2-4.2c-1.2-0.2-2.5-0.1-4.1,0.2c-2.8,0.6-4.9,0.8-6.4,0.8c5.7-9.7,10.4-20.7,13-31
	c4.3-16.8,2-24.4-0.7-27.8c-7.2-9.1-17.6-14-30.2-14.2C85.8,0.8,79.9,2.1,76.8,3c-2.9-0.5-5.9-0.8-9.2-0.8c-6.1-0.1-11.4,1.2-16,3.9
	C49.1,5.3,45,4.1,40.4,3.3c-11-1.8-19.9-0.4-26.4,4.2C6.1,13.1,2.4,22.7,3.1,36.2c0.2,4.3,2.6,17.3,6.4,29.7
	c2.2,7.1,4.5,13,6.9,17.5c3.4,6.4,7,10.2,11.1,11.6c2.3,0.8,6.4,1.3,10.8-2.3c0.6,0.7,1.3,1.3,2.3,2c1.2,0.8,2.8,1.4,4.3,1.8
	c5.5,1.4,10.6,1,15-0.9c0,0.8,0,1.5,0.1,2.2c0,1,0.1,2.1,0.1,3c0.3,6.5,0.7,11.5,2,15c0.1,0.2,0.2,0.5,0.3,0.8
	c0.6,2,1.7,5.3,4.5,7.9c2.9,2.7,6.3,3.5,9.5,3.5c1.6,0,3.1-0.2,4.4-0.5c4.7-1,10.1-2.6,14-8.1c3.7-5.2,5.5-13.1,5.8-25.6
	c0-0.4,0.1-0.7,0.1-1l0.1-0.7l0.9,0.1l0.2,0c4.8,0.2,10.7-0.8,14.4-2.5C119,88.4,128.2,83.6,126,77"/>
<path class="st0" d="M117.8,78.3c-14.4,3-15.4-1.9-15.4-1.9c15.2-22.5,21.5-51.1,16-58.1C103.5-0.8,77.7,8.3,77.3,8.5l-0.1,0
	c-2.8-0.6-6-0.9-9.6-1C61,7.4,56.1,9.2,52.4,12.1c0,0-46.1-19-43.9,23.9c0.5,9.1,13.1,69,28.1,50.9c5.5-6.6,10.8-12.2,10.8-12.2
	c2.6,1.8,5.8,2.6,9.1,2.3l0.3-0.2c-0.1,0.8,0,1.6,0.1,2.6c-3.9,4.3-2.7,5.1-10.5,6.7c-7.8,1.6-3.2,4.5-0.2,5.2
	c3.6,0.9,12.1,2.2,17.8-5.8l-0.2,0.9c1.5,1.2,2.6,7.9,2.4,14c-0.2,6.1-0.3,10.2,0.9,13.5c1.2,3.3,2.4,10.6,12.6,8.4
	c8.5-1.8,12.9-6.6,13.5-14.4c0.4-5.6,1.4-4.8,1.5-9.8l0.8-2.4c0.9-7.6,0.1-10,5.4-8.9l1.3,0.1c3.9,0.2,8.9-0.6,11.9-2
	C120.3,81.9,124.1,77,117.8,78.3L117.8,78.3"/>
<path class="st1" d="M45,62.8c-1.3-0.2-2.5,0-3.1,0.4c-0.3,0.3-0.4,0.5-0.5,0.7c-0.1,0.5,0.3,1.1,0.5,1.4c0.7,0.9,1.6,1.5,2.5,1.6
	c0.1,0,0.3,0,0.4,0c1.6,0,3-1.2,3.1-2.1C48.2,63.8,46.6,63,45,62.8 M87.9,62.8c-0.1-0.9-1.7-1.1-3.2-0.9c-1.5,0.2-2.9,0.9-2.8,1.8
	c0.1,0.7,1.3,1.9,2.8,1.9c0.1,0,0.3,0,0.4,0c1-0.1,1.7-0.8,2-1.1C87.6,63.8,87.9,63.2,87.9,62.8"/>
<path class="st1" d="M122.6,77.9c-0.5-1.7-2.3-2.2-5.2-1.6c-8.7,1.8-11.8,0.6-12.8-0.2c6.8-10.3,12.3-22.7,15.3-34.4
	c1.4-5.5,2.2-10.6,2.3-14.8c0.1-4.6-0.7-7.9-2.3-10c-6.5-8.3-16-12.7-27.5-12.8c-7.9-0.1-14.6,1.9-15.9,2.5
	c-2.7-0.7-5.7-1.1-8.9-1.1c-5.9-0.1-11.1,1.3-15.3,4.2c-1.8-0.7-6.6-2.3-12.4-3.3C29.7,4.9,21.7,6.1,16,10.2C9.2,15,6,23.6,6.6,35.8
	c0.2,4.1,2.5,16.7,6.2,28.8C17.7,80.6,23,89.6,28.6,91.4c0.7,0.2,1.4,0.4,2.2,0.4c2,0,4.5-0.9,7.1-4c3.2-3.8,6.4-7.5,9.8-11.1
	c2.2,1.2,4.6,1.8,7,1.9c0,0.1,0,0.1,0,0.2c-0.4,0.5-0.8,1-1.2,1.5c-1.7,2.2-2.1,2.6-7.5,3.7c-1.6,0.3-5.7,1.2-5.8,4.1
	c-0.1,3.2,4.9,4.5,5.5,4.6c2,0.5,3.9,0.7,5.7,0.7c4.4,0,8.3-1.4,11.4-4.2c-0.1,11.3,0.4,22.4,1.7,25.8c1.1,2.8,3.8,9.6,12.4,9.6
	c1.3,0,2.6-0.1,4.2-0.5c8.9-1.9,12.8-5.9,14.3-14.6c0.8-4.7,2.2-15.8,2.8-21.7c1.4,0.4,3.1,0.6,5,0.6c4,0,8.6-0.8,11.4-2.2
	C117.9,84.8,123.7,81.1,122.6,77.9z M101.3,37.6c0,1.8-0.3,3.4-0.5,5c-0.3,1.8-0.6,3.7-0.6,5.9c-0.1,2.2,0.2,4.5,0.5,6.7
	c0.5,4.5,1.1,9-1,13.6c-0.4-0.6-0.7-1.3-0.9-1.9c-0.3-0.6-0.8-1.7-1.6-3.1c-3.1-5.5-10.3-18.5-6.6-23.8
	C91.5,38.3,94.3,36.7,101.3,37.6z M92.8,7.8c10.3,0.2,18.5,4.1,24.2,11.5c4.4,5.7-0.4,31.4-14.6,53.6c-0.1-0.2-0.3-0.4-0.4-0.5
	l-0.2-0.2c3.6-6,2.9-12,2.3-17.3c-0.3-2.2-0.5-4.2-0.4-6.1c0.1-2,0.3-3.8,0.6-5.5c0.3-2.1,0.6-4.2,0.6-6.8c0.1-0.3,0.1-0.6,0.1-1
	c-0.2-2.4-3-9.7-8.7-16.3c-3.1-3.6-7.6-7.6-13.8-10.4C85.1,8.2,88.8,7.7,92.8,7.8z M35.2,85.5c-2.8,3.4-4.8,2.8-5.5,2.6
	c-4.2-1.4-9.1-10.3-13.4-24.4c-3.7-12.2-5.9-24.5-6.1-28c-0.5-10.9,2.1-18.5,7.9-22.6c9.4-6.6,24.8-2.7,31-0.7
	c-0.1,0.1-0.2,0.2-0.3,0.3c-10.2,10.3-9.9,27.8-9.9,28.9c0,0.4,0,1,0.1,1.8c0.2,2.9,0.5,8.4-0.4,14.6c-0.8,5.8,1,11.4,4.9,15.5
	c0.4,0.4,0.8,0.8,1.3,1.2C43,76.6,39.2,80.7,35.2,85.5z M46,71c-3.2-3.3-4.6-7.9-3.9-12.6c0.9-6.6,0.6-12.3,0.4-15.4
	c0-0.4,0-0.8-0.1-1.1c1.5-1.3,8.4-5,13.3-3.9c2.2,0.5,3.6,2,4.2,4.7c2.9,13.6,0.4,19.2-1.7,23.8c-0.4,0.9-0.8,1.8-1.2,2.7L56.8,70
	c-0.7,1.8-1.3,3.5-1.7,5C51.8,75,48.5,73.6,46,71L46,71z M46.5,89.3c-1-0.2-1.9-0.7-2.4-1c0.4-0.2,1.2-0.5,2.5-0.8
	c6.4-1.3,7.4-2.3,9.6-5c0.5-0.6,1.1-1.3,1.8-2.2l0,0c1.2-1.3,1.7-1.1,2.7-0.7c0.8,0.3,1.5,1.3,1.9,2.4c0.1,0.5,0.3,1.5-0.2,2.2
	C57.9,90.6,51.3,90.5,46.5,89.3z M80.3,120.7c-7.9,1.7-10.7-2.3-12.5-6.9c-1.2-3-1.8-16.3-1.4-31.1c0-0.2,0-0.4-0.1-0.6
	c0-0.4-0.1-0.7-0.2-1c-0.6-2.2-2.1-3.9-3.9-4.7c-0.7-0.3-2-0.8-3.6-0.4c0.3-1.4,0.9-2.9,1.6-4.6l0.3-0.7c0.3-0.8,0.7-1.6,1.1-2.5
	c2.1-4.8,5.1-11.3,1.9-26c-1.2-5.5-5.2-8.2-11.2-7.6c-3.6,0.4-6.9,1.8-8.6,2.7c-0.4,0.2-0.7,0.4-1,0.5c0.5-5.6,2.2-15.9,8.7-22.5
	C55.4,11,60.9,9,67.5,9.1C80.6,9.3,89,16,93.8,21.6c4.1,4.8,6.3,9.7,7.2,12.3c-6.6-0.7-11.2,0.6-13.5,3.9c-5,7.1,2.7,20.9,6.4,27.6
	c0.7,1.2,1.3,2.3,1.5,2.7c1.2,2.9,2.8,4.9,3.9,6.3c0.3,0.4,0.7,0.9,0.9,1.2c-2,0.6-5.6,1.9-5.3,8.6c-0.3,3.4-2.2,19.1-3.1,24.7
	C90.6,116.3,87.9,119.1,80.3,120.7L80.3,120.7z M113.1,83.1c-2.1,1-5.5,1.7-8.8,1.8c-3.6,0.2-5.5-0.4-5.9-0.8
	c-0.2-4.2,1.4-4.6,3-5.1c0.3-0.1,0.5-0.1,0.8-0.2c0.2,0.1,0.3,0.2,0.5,0.4c2.9,1.9,8.1,2.1,15.4,0.6l0.1,0
	C117.2,80.7,115.5,82,113.1,83.1z"/>
</svg>
