<?xml version="1.0" encoding="utf-8"?>
<!-- Generator: Adobe Illustrator 26.2.1, SVG Export Plug-In . SVG Version: 6.00 Build 0)  -->
<svg version="1.1" id="Capa_1" xmlns="http://www.w3.org/2000/svg" xmlns:xlink="http://www.w3.org/1999/xlink" x="0px" y="0px"
	 viewBox="0 0 128.1 128" style="enable-background:new 0 0 128.1 128;" xml:space="preserve">
<style type="text/css">
	.st0{fill:url(#SVGID_1_);}
	.st1{fill:url(#SVGID_00000114046214296880136760000002634897090842017935_);}
</style>
<linearGradient id="SVGID_1_" gradientUnits="userSpaceOnUse" x1="-238.3403" y1="457.4001" x2="-237.6735" y2="456.7385" gradientTransform="matrix(95.0628 0 0 -95.2748 22669.1992 43590.6992)">
	<stop  offset="0" style="stop-color:#387EB8"/>
	<stop  offset="1" style="stop-color:#366994"/>
</linearGradient>
<path class="st0" d="M63.5,0.2C31,0.2,33,14.4,33,14.4l0,14.6h31.1v4.4H20.7c0,0-20.8-2.4-20.8,30.5c0,32.8,18.2,31.7,18.2,31.7
	h10.8V80.3c0,0-0.6-18.2,17.9-18.2h30.8c0,0,17.3,0.3,17.3-16.7V17.3C94.9,17.3,97.5,0.2,63.5,0.2z M46.4,10.1
	c3.1,0,5.6,2.5,5.6,5.6c0,0,0,0,0,0c0,3.1-2.5,5.6-5.6,5.6c0,0,0,0,0,0c-3.1,0-5.6-2.5-5.6-5.6c0,0,0,0,0,0
	C40.8,12.6,43.3,10.1,46.4,10.1C46.4,10.1,46.4,10.1,46.4,10.1z"/>
<linearGradient id="SVGID_00000082345676684984805620000005648017677827799187_" gradientUnits="userSpaceOnUse" x1="-238.2786" y1="457.3145" x2="-237.5624" y2="456.636" gradientTransform="matrix(95.0627 0 0 -95.2748 22702.3242 43622.9531)">
	<stop  offset="0" style="stop-color:#FFE052"/>
	<stop  offset="1" style="stop-color:#FFC331"/>
</linearGradient>
<path style="fill:url(#SVGID_00000082345676684984805620000005648017677827799187_);" d="M64.5,127.8c32.5,0,30.5-14.1,30.5-14.1
	l0-14.6H63.9v-4.4h43.4c0,0,20.8,2.4,20.8-30.5c0-32.8-18.2-31.7-18.2-31.7H99.1v15.2c0,0,0.6,18.2-17.9,18.2H50.4
	c0,0-17.3-0.3-17.3,16.7v28.1C33.1,110.7,30.5,127.8,64.5,127.8L64.5,127.8z M81.6,117.9c-3.1,0-5.6-2.5-5.6-5.6c0,0,0,0,0,0
	c0-3.1,2.5-5.6,5.6-5.6c0,0,0,0,0,0c3.1,0,5.6,2.5,5.6,5.6c0,0,0,0,0,0C87.2,115.4,84.7,117.9,81.6,117.9
	C81.6,117.9,81.6,117.9,81.6,117.9L81.6,117.9z"/>
</svg>
