<?xml version="1.0" encoding="utf-8"?>
<!-- Generator: Adobe Illustrator 26.2.1, SVG Export Plug-In . SVG Version: 6.00 Build 0)  -->
<svg version="1.1" id="Capa_1" xmlns="http://www.w3.org/2000/svg" xmlns:xlink="http://www.w3.org/1999/xlink" x="0px" y="0px"
	 viewBox="0 0 236 128" style="enable-background:new 0 0 236 128;" xml:space="preserve">
<style type="text/css">
	.st0{fill:#F89939;}
	.st1{fill:#3499CD;}
	.st2{fill:#010101;}
	.st3{fill:#FFFFFF;}
</style>
<g>
	<path class="st0" d="M180.5,108.1c28.6-28.6,33.3-70.1,10.6-92.9s-64.3-18-92.9,10.6S77.9,109,87.6,118.7
		C95.5,126.6,151.9,136.7,180.5,108.1z"/>
	<path class="st1" d="M63.2,66.9C46.6,50.3,22.5,47.5,9.3,60.7C-3.9,73.9-1.1,98,15.5,114.6c16.6,16.6,48.3,11.8,53.9,6.2
		C73.9,116.2,79.8,83.4,63.2,66.9z"/>
	<path class="st2" d="M227.4,103.6c-1.1,0-1.6-0.6-1.6-1.9c0-1,0.6-3.1,1.9-6.3c1.8-4.7,2.8-8.1,2.8-10.2c0-1.2-0.4-2.3-1.1-3.1
		c-0.7-0.8-1.6-1.2-2.7-1.2c-1.6,0-3.5,0.7-5.5,2.3c-2.1,1.5-4.9,4.2-8.4,8.2c0.5-2.6,1.6-6.1,3.3-10.5l-7.9,1.5
		c-1.8,3.9-3.1,7.4-3.9,10.5c-0.4,1.5-0.7,3.1-0.9,4.7c-2.5,2.4-4.1,3.8-4.8,4.4c-0.7,0.5-1.5,0.8-2.2,0.8c-0.7,0-1.3-0.3-1.7-0.8
		c-0.4-0.5-0.6-1.3-0.6-2.2c0-1,0.2-2.1,0.5-3.3c0.4-1.3,1.2-3.6,2.4-7.1l3-8.3L197,81c-2.7,5.1-5.8,7.8-9.4,8.2
		c1-2.5,1.5-4.5,1.5-5.8c0-1.7-0.8-2.6-2.5-2.6c-2,0-3.5,0.9-4.7,2.8c-1.1,1.9-1.7,3.7-1.7,5.3s0.9,2.8,2.8,3.7
		c-1.2,1.8-2.6,3.4-4,5c-1.7,1.7-3.1,3-4.1,3.9c-1,0.9-1.9,1.3-2.8,1.3c-1.3,0-2-0.9-2-2.8s0.7-5,2.2-9.8l2.9-9.5h-1.8l-6.6,3.7
		c-1.1-2.5-3-3.7-5.7-3.7c-2.1,0-4.6,0.9-7.4,2.7c-2.8,1.8-5.1,4.2-6.8,7.1c-1.4,2.3-2.2,4.6-2.5,7.1c-2.5,2.5-4.4,4.1-5.6,4.8
		c-1.3,0.8-2.7,1.2-4.1,1.2c-3.6,0-5.9-2.1-6.7-6.3c9.5-2.8,14.2-6.4,14.2-10.9c0-1.7-0.6-3-1.8-4.1c-1.2-1-2.8-1.6-4.8-1.6
		c-3.9,0-7.4,1.8-10.5,5.5c-2.9,3.3-4.4,7.1-4.7,11.1c-2.6,2.6-4.6,4.3-5.9,5.1c-1.3,0.8-2.6,1.3-3.7,1.3c-1.2,0-2.1-0.5-2.7-1.6
		c-0.7-1.1-1-2.6-1-4.5c0-0.8,0.1-2.4,0.3-4.6c4.3-4.7,7.5-9.1,9.5-13.2c2-4.1,3-8.4,3-12.8c0-1.6-0.2-2.8-0.6-3.7
		c-0.4-0.9-0.9-1.4-1.5-1.4c-0.1,0-0.3,0-0.6,0.1l-8.2,3c-2.8,5.3-5.2,11.2-7.1,17.5c-2,6.3-2.9,11.8-2.9,16.3c0,3,0.7,5.4,2.1,7.2
		c1.4,1.8,3.3,2.7,5.6,2.7c2,0,4.1-0.6,6.3-1.9c2.2-1.3,4.8-3.3,7.7-6s0,0,0,0c0.3,2,1.2,3.7,2.5,5.1c1.8,1.9,4.2,2.8,7.1,2.8
		c2.6,0,5-0.6,7.2-1.9c2.1-1.2,4.5-3.1,7.1-5.7c0.2,1.9,0.8,3.5,1.9,5c1.3,1.8,2.9,2.7,4.8,2.7s3.8-0.7,5.7-2.2
		c1.8-1.5,3.8-3.7,6-6.8c-0.2,6,1.4,9,4.8,9c1.4,0,2.8-0.5,4.3-1.5c1.5-1,3.9-3.1,7.4-6.4c3-3,5.2-5.7,6.6-8.3
		c1.9-0.3,3.6-0.9,5.2-1.7c-3.3,5.1-4.9,9.2-4.9,12.2c0,1.6,0.5,3,1.4,4.1c0.9,1.1,2,1.7,3.3,1.7c2.9,0,6.9-2.6,12.2-7.7
		c0,0.4,0,0.8,0,1.2c0,1.4,0.1,3.6,0.3,6.5l7.1-1.7c0-1.9,0-3.5,0.1-4.6c0.1-1.5,0.3-3.2,0.6-5c0.2-1.1,0.7-2.1,1.5-3.1l1.8-2.1
		c0.7-0.8,1.3-1.5,1.9-2.1c0.7-0.7,1.3-1.3,1.8-1.8c0.6-0.5,1.1-1,1.6-1.3c0.5-0.3,0.9-0.5,1.2-0.5c0.5,0,0.8,0.3,0.8,1
		c0,0.7-0.5,2.3-1.5,4.8c-1.9,4.7-2.9,8.3-2.9,10.6c0,1.7,0.4,3.1,1.3,4.1c0.9,1,2,1.5,3.5,1.5c3.5,0,7.8-2.6,12.8-7.9v-3.7
		C231.5,101.6,228.9,103.7,227.4,103.6L227.4,103.6z M108.1,88.5c1.5-7.1,3-12.7,4.5-16.7c1.5-4,2.7-6,3.5-6c0.4,0,0.7,0.2,0.9,0.7
		c0.2,0.5,0.3,1.1,0.3,1.9c0,2.7-0.8,6-2.6,9.7C113,82,110.8,85.5,108.1,88.5z M129.6,86.7c1.3-2.2,2.7-3.3,4.1-3.3
		c1.5,0,2.3,1,2.3,3.1c0,4.2-2.8,7-8.3,8.6C127.7,91.7,128.3,88.9,129.6,86.7z M161.6,97.4c-1.9,3.7-3.9,5.5-6.1,5.5
		c-0.9,0-1.6-0.4-2.2-1.1s-0.9-1.7-0.9-2.8c0-3.1,1-6.5,2.9-10.1c1.9-3.7,4-5.5,6.1-5.5c0.9,0,1.6,0.3,2.2,1
		c0.5,0.7,0.8,1.6,0.8,2.8C164.4,90.4,163.5,93.7,161.6,97.4L161.6,97.4z"/>
	<path class="st3" d="M139,65.6c0.3,0.4,0.4,0.9,0.4,1.5c0,0.6-0.2,1.1-0.5,1.6c-0.3,0.5-0.8,0.9-1.4,1.2c-0.6,0.3-1.3,0.4-2.1,0.4
		c-1.3,0-2.3-0.3-3-0.8c-0.7-0.5-1.1-1.4-1.3-2.4l1.7-0.3c0.1,0.7,0.4,1.2,0.8,1.6c0.4,0.4,1,0.5,1.8,0.5c0.8,0,1.4-0.2,1.8-0.5
		c0.4-0.3,0.6-0.7,0.6-1.1c0-0.4-0.2-0.7-0.5-0.9c-0.2-0.1-0.8-0.3-1.8-0.6c-1.3-0.3-2.1-0.6-2.6-0.8s-0.9-0.5-1.1-1
		c-0.2-0.4-0.4-0.9-0.4-1.4c0-0.5,0.1-0.9,0.3-1.2c0.2-0.4,0.5-0.7,0.8-1c0.3-0.2,0.6-0.4,1.1-0.5c0.5-0.1,1-0.2,1.5-0.2
		c0.8,0,1.5,0.1,2.1,0.3c0.6,0.2,1,0.5,1.3,0.9c0.3,0.4,0.5,0.9,0.6,1.6l-1.7,0.2c-0.1-0.5-0.3-0.9-0.7-1.2
		c-0.4-0.3-0.9-0.4-1.6-0.4c-0.8,0-1.4,0.1-1.7,0.4s-0.5,0.6-0.5,0.9c0,0.2,0.1,0.4,0.2,0.6c0.1,0.2,0.4,0.3,0.7,0.5
		c0.2,0.1,0.7,0.2,1.5,0.4c1.2,0.3,2,0.6,2.5,0.8C138.3,64.9,138.7,65.2,139,65.6L139,65.6z M147.1,68.2c-0.5,0.4-1,0.6-1.7,0.6
		c-0.8,0-1.5-0.3-2-0.9c-0.5-0.6-0.8-1.6-0.8-3c0-1.4,0.3-2.3,0.8-2.9c0.5-0.6,1.2-0.9,2.1-0.9c0.6,0,1.1,0.2,1.5,0.5
		c0.4,0.3,0.7,0.9,0.8,1.5l1.7-0.3c-0.2-1-0.6-1.8-1.3-2.4c-0.7-0.5-1.6-0.8-2.7-0.8c-0.9,0-1.7,0.2-2.4,0.6c-0.7,0.4-1.3,1-1.6,1.8
		c-0.4,0.8-0.5,1.8-0.5,2.9c0,1.7,0.4,3,1.3,3.9c0.8,0.9,2,1.4,3.3,1.4c1.1,0,2-0.3,2.8-1c0.7-0.7,1.2-1.6,1.4-2.7l-1.7-0.2
		C147.9,67.2,147.6,67.9,147.1,68.2L147.1,68.2z M151.1,70h1.7V59.9h-1.7V70z M151.1,58.1h1.7v-2h-1.7V58.1z M163.4,59.9h-2.2
		l-4.1,4.1v-8h-1.7V70h1.7v-4l1.2-1.2l3.3,5.2h2.1l-4.3-6.3C159.6,63.7,163.4,59.9,163.4,59.9z M165.2,58.1h1.7v-2h-1.7V58.1z
		 M165.2,70h1.7V59.9h-1.7V70z M173.3,68.5c-0.3,0-0.6,0.1-0.7,0.1c-0.3,0-0.5,0-0.6-0.1c-0.1-0.1-0.2-0.2-0.3-0.3
		c-0.1-0.1-0.1-0.5-0.1-0.9v-5.9h1.7v-1.3h-1.7v-3.5l-1.7,1v2.5h-1.3v1.3h1.3v5.8c0,1,0.1,1.7,0.2,2c0.1,0.3,0.4,0.6,0.7,0.8
		c0.3,0.2,0.8,0.3,1.4,0.3c0.4,0,0.8-0.1,1.3-0.1L173.3,68.5L173.3,68.5z"/>
</g>
</svg>
