<svg xmlns="http://www.w3.org/2000/svg" width="1em" height="1em" viewBox="0 0 24 24"><path fill="currentColor" d="M11.8 15.955a44.068 44.068 0 0 1-1.673-.691c-1.736-.757-1.981-.772-2.499-.143c-.119.146-.25.236-.287.2c-.111-.111.219-.644.617-.993c.325-.285.433-.325.791-.285c.228.025.985.29 1.682.586c1.573.669 2.034.811 2.635.811c.731 0 1.106-.512.876-1.192c-.057-.171-.04-.228.074-.228c.213 0 .322.797.168 1.255a1.617 1.617 0 0 1-.424.614c-.251.211-.41.257-.879.254a3.853 3.853 0 0 1-1.082-.188h.001Zm.301-2.225c0-.048.179-.134.401-.188l.401-.099l.086-1.446c.094-1.599.025-3.172-.148-3.383c-.063-.074-.253-.165-.427-.205c-.705-.156-.236-.264 1.133-.264c1.368 0 1.803.099 1.152.264c-.561.14-.564.148-.564 2.43c0 1.266.046 2.22.111 2.342c.092.171.228.207.752.207c1.081 0 1.453-.255 1.747-1.203c.088-.284.315-.233.236.054c-.037.134-.097.54-.134.91l-.068.669H14.44c-1.286 0-2.339-.04-2.339-.088Zm5.312-.068c0-.086.083-.171.219-.236c.183-.086.302-.265.734-1.11c.686-1.337 1.767-3.634 1.87-3.978c.079-.262.097-.276.392-.31c.171-.02.313-.031.316-.025l.527 1.152c.284.628.856 1.824 1.271 2.654c.695 1.397.772 1.523 1.005 1.636c.142.069.253.174.253.237c0 .099-.122.111-1.175.111c-1.056 0-1.175-.012-1.175-.114c0-.068.091-.142.236-.191c.134-.043.236-.122.236-.182c0-.057-.139-.432-.31-.834l-.31-.731h-2.35l-.225.495c-.421.928-.43 1.147-.037 1.252c.196.054.25.097.227.185c-.025.103-.127.117-.867.117c-.794.006-.837 0-.837-.128Zm-15.652.025a10.933 10.933 0 0 1-.808-.196l-.549-.154l.282-.518l.281-.518l-.227-.281c-.322-.399-.737-1.272-.74-1.554c-.003-.657.851-1.61 1.898-2.122c.72-.353 1.291-.362 2.009-.026l.54.253l.157-.224c.085-.123.156-.285.156-.356c0-.071.071-.134.157-.134c.085 0 .156.023.156.048c0 .063-.629 1.651-.669 1.691c-.017.016-.187-.063-.381-.177c-.546-.321-1.232-.535-1.764-.549c-1.238-.031-1.667 1.178-.794 2.236l.308.373l.839-.68c.942-.76 1.05-.777 1.784-.27c.825.569.839 1.434.042 2.339c-.705.805-1.431 1.027-2.677.819Zm5.984-.165c-.646-.301-1.229-.876-1.565-1.547c-.538-1.076-.373-1.765.646-2.695c.856-.782 1.556-1.087 2.498-1.087c.68 0 .825.037 1.266.307c1.044.646 1.303 1.878.675 3.221c-.737 1.577-2.294 2.37-3.52 1.801Zm-3.872-.702c.409-.322.381-.917-.063-1.389c-.558-.592-.731-.566-1.713.253c-.976.814-.982.783.185 1.155c.771.251 1.255.242 1.591-.019Zm6.034-.046c.484-.239.817-1.343.68-2.259c-.17-1.13-1.698-1.901-2.819-1.423c-1.153.493-1.17 1.804-.037 2.985c.791.828 1.471 1.044 2.176.697Zm11.359-1.414c.04-.071-.845-2.003-.928-2.023c-.06-.017-.976 1.872-.976 2.014c0 .072 1.861.08 1.904.009Z"/></svg>